<?xml version="1.0" standalone="no"?>
<!DOCTYPE svg PUBLIC "-//W3C//DTD SVG 20010904//EN"
 "http://www.w3.org/TR/2001/REC-SVG-20010904/DTD/svg10.dtd">
<svg version="1.0" xmlns="http://www.w3.org/2000/svg"
 width="3000.000000pt" height="4599.000000pt" viewBox="0 0 3000.000000 4599.000000"
 preserveAspectRatio="xMidYMid meet">
<metadata>
Created by potrace 1.16, written by Peter Selinger 2001-2019
</metadata>
<g transform="translate(0.000000,4599.000000) scale(0.100000,-0.100000)"
fill="#000000" stroke="none">
<path d="M782 33406 c-36 -19 -53 -52 -51 -98 1 -24 2 -4358 4 -9633 2 -9079
3 -9594 20 -9660 23 -93 76 -203 129 -268 56 -68 197 -207 2651 -2608 1150
-1124 4154 -4063 6676 -6530 2522 -2467 4601 -4500 4621 -4518 46 -40 84 -47
123 -23 17 11 1428 1387 3136 3058 4502 4406 6878 6730 8899 8703 982 958
1813 1775 1848 1814 118 135 191 273 234 443 l23 89 0 9601 c0 9428 0 9602
-19 9623 -20 22 -96 31 -96 10 0 -20 -352 -781 -628 -1359 -264 -552 -529
-1093 -1147 -2340 -323 -652 -654 -1320 -735 -1485 -81 -165 -1019 -2071
-2085 -4235 -2770 -5625 -2797 -5679 -4210 -8555 -1232 -2507 -2251 -4579
-3382 -6875 -456 -925 -1765 -3584 -1810 -3677 -8 -17 -30 -45 -47 -62 l-32
-31 -21 22 c-19 21 -253 492 -1746 3513 -669 1354 -1030 2088 -2759 5605
-2651 5389 -2772 5637 -4286 8710 -1778 3612 -2720 5522 -3312 6720 -480 969
-536 1084 -1005 2045 -429 879 -558 1154 -764 1621 -91 206 -177 374 -198 387
-5 3 -18 0 -31 -7z m27172 -5444 c15 -17 16 -483 16 -6644 0 -5865 -2 -6635
-15 -6706 -28 -144 -77 -266 -158 -387 -52 -79 -1321 -1351 -1817 -1823 -206
-197 -685 -667 -1065 -1046 -379 -379 -841 -831 -1025 -1005 -184 -173 -630
-608 -990 -966 -360 -358 -770 -759 -910 -890 -140 -132 -595 -577 -1010 -990
-415 -413 -876 -865 -1025 -1005 -148 -139 -605 -587 -1015 -995 -410 -408
-889 -876 -1065 -1040 -176 -165 -653 -631 -1060 -1035 -407 -405 -828 -818
-935 -920 -107 -101 -329 -313 -493 -470 -164 -157 -308 -290 -320 -297 -12
-7 -33 -12 -46 -13 -20 0 -22 3 -17 27 4 16 303 627 666 1358 607 1227 1150
2332 1150 2343 0 2 272 552 604 1221 332 669 693 1403 802 1631 109 228 342
703 517 1055 176 352 396 800 489 995 94 195 376 771 628 1280 252 509 531
1078 620 1265 90 187 368 752 619 1255 251 503 530 1070 621 1260 90 190 371
761 624 1270 254 509 533 1076 620 1260 88 184 367 751 620 1260 254 509 553
1119 666 1355 112 237 460 943 773 1570 313 627 651 1311 752 1520 101 209
347 709 547 1110 200 402 437 888 528 1080 90 193 316 654 501 1025 185 371
375 758 424 860 116 245 139 275 179 232z m-26041 -10 c23 -14 103 -164 401
-757 205 -407 437 -877 516 -1045 79 -168 308 -636 509 -1040 202 -404 456
-924 566 -1155 109 -231 455 -933 768 -1560 313 -627 643 -1295 734 -1485 91
-190 391 -799 668 -1355 276 -555 574 -1161 661 -1345 87 -184 364 -747 615
-1250 250 -503 529 -1070 619 -1260 91 -190 367 -752 615 -1250 249 -498 525
-1060 615 -1250 91 -190 369 -757 620 -1260 251 -503 523 -1057 605 -1230 82
-173 318 -655 525 -1070 207 -415 456 -926 555 -1135 99 -209 382 -785 630
-1280 248 -495 540 -1089 650 -1320 110 -231 424 -870 698 -1420 275 -550 579
-1166 677 -1370 98 -203 286 -592 419 -863 220 -450 256 -533 234 -545 -34
-18 -90 33 -634 579 -310 311 -721 716 -914 898 -192 183 -658 641 -1035 1017
-377 376 -847 837 -1045 1025 -198 187 -652 633 -1010 990 -357 357 -794 784
-970 949 -176 164 -653 630 -1060 1035 -407 405 -841 830 -965 945 -124 115
-562 545 -975 955 -412 410 -858 847 -990 970 -132 123 -559 542 -950 930
-390 388 -827 816 -970 950 -332 311 -1186 1145 -1245 1215 -97 115 -159 256
-179 408 -17 123 -15 13397 2 13397 6 0 25 -8 40 -18z"/>
</g>
</svg>
